<svg id="SvgjsSvg1072" width="288" height="288" xmlns="http://www.w3.org/2000/svg" version="1.1" xmlns:xlink="http://www.w3.org/1999/xlink" xmlns:svgjs="http://svgjs.com/svgjs"><defs id="SvgjsDefs1073"></defs><g id="SvgjsG1074"><svg xmlns="http://www.w3.org/2000/svg" viewBox="0 0 512 512" width="288" height="288"><path fill-rule="evenodd" d="M210.029 485.85c4.315.863 7.113 5.06 6.25 9.375s-5.06 7.113-9.375 6.25C149.641 489.97 99.532 458.781 63.95 415.283 28.98 372.53 8 317.895 8 258.369c0-68.483 27.759-130.482 72.638-175.362 44.879-44.879 106.879-72.638 175.361-72.638 68.483 0 130.483 27.758 175.362 72.638C476.241 127.886 504 189.887 504 258.369c0 46.087-12.588 89.255-34.515 126.252-22.689 38.283-55.379 69.936-94.465 91.356-.129.071-.26.138-.391.201-29.979 17.153-63.004 22.587-95.772 15.582-31.443-6.722-62.532-24.907-90.276-55.188-10.193-11.125-15.102-25.261-14.796-39.276.307-14.069 5.823-28.003 16.477-38.658l16.141-16.141a316.557 316.557 0 0 1-17.956-16.79c-40.674-40.24-70.102-91.121-83.594-147.66-4.384-18.369 3.004-36.648 18.918-46.816l34.871-22.279c9.391-6 21.779-1.872 25.693 8.561l24.995 66.617c2.004 5.34 1.412 10.804-1.688 15.593l-14.531 22.435c-3.781 5.838-3.82 12.904-.102 18.784a257.148 257.148 0 0 0 35.678 44.526 257.148 257.148 0 0 0 44.526 35.678c5.88 3.718 12.945 3.679 18.784-.102l22.435-14.531c4.789-3.1 10.253-3.692 15.593-1.688l66.617 24.995c10.433 3.914 14.561 16.302 8.561 25.693l-22.279 34.871c-10.168 15.914-28.447 23.302-46.816 18.918-43.123-10.29-82.953-29.852-117.281-56.602l-17.251 17.251c-7.666 7.666-11.633 17.632-11.852 27.657-.22 10.08 3.3 20.236 10.609 28.214 25.37 27.689 53.539 44.263 81.838 50.313 28.899 6.178 58.06 1.367 84.567-13.795.192-.128.39-.249.596-.362 36.585-20.05 67.176-49.667 88.402-85.481C476.233 341.911 488 301.523 488 258.369c0-64.066-25.967-122.066-67.951-164.049C378.066 52.336 320.066 26.369 256 26.369S133.934 52.337 91.951 94.32C49.967 136.303 24 194.303 24 258.368c0 55.699 19.621 106.807 52.326 146.79 33.326 40.742 80.196 69.941 133.703 80.692z" clip-rule="evenodd" fill="#ffffff" class="color000 svgShape"></path></svg></g></svg>