<svg id="SvgjsSvg1122" width="288" height="288" xmlns="http://www.w3.org/2000/svg" version="1.1" xmlns:xlink="http://www.w3.org/1999/xlink" xmlns:svgjs="http://svgjs.com/svgjs"><defs id="SvgjsDefs1123"></defs><g id="SvgjsG1124"><svg xmlns="http://www.w3.org/2000/svg" data-name="Layer 1" viewBox="0 0 512 512" width="288" height="288"><path d="M408.248 295.758h32.861C423.262 391.116 333.012 449.6 255.634 449.6c-55.811 0-115-30.012-150.792-76.457a7 7 0 0 0-11.089 8.545 213.836 213.836 0 0 0 74.181 60.491c28.278 14.014 58.6 21.421 87.7 21.421 44.484 0 91.3-17.363 128.451-47.639 38.081-31.035 63.112-73.409 71.253-120.2h39.013L451.3 233.367zM70.891 216.242C88.738 120.884 178.988 62.4 256.366 62.4c55.811 0 115 30.012 150.792 76.457a7 7 0 0 0 11.089-8.545 213.836 213.836 0 0 0-74.181-60.491c-28.276-14.013-58.6-21.421-87.7-21.421-44.484 0-91.3 17.363-128.451 47.639-38.081 31.035-63.112 73.409-71.253 120.2H17.648L60.7 278.633l43.052-62.391z" fill="#ffffff" class="color000 svgShape"></path><path d="M332.186 259.225A76.338 76.338 0 1 0 200.22 311.551 52.418 52.418 0 0 1 214.6 348.088h-.818a7 7 0 0 0 0 14h84.43a7 7 0 0 0 0-14h-1.709c-.273-13.4 4.749-25.842 14.75-36.311A77.066 77.066 0 0 0 332.186 259.225zM230.2 377.4a7 7 0 0 0 0 14h51.6a7 7 0 0 0 0-14zM261.241 156.326V127.6a7 7 0 1 0-14 0v28.73a7 7 0 1 0 14 0zM351.089 162.366a7 7 0 0 0-9.895-.282l-21.107 19.935A7 7 0 1 0 329.7 192.2l21.107-19.935A7 7 0 0 0 351.089 162.366zM191.142 189.454a7 7 0 0 0 .071-9.9l-20.228-20.521a7 7 0 0 0-9.97 9.828l20.228 20.521a7 7 0 0 0 9.9.071z" fill="#ffffff" class="color000 svgShape"></path></svg></g></svg>