<svg id="SvgjsSvg1141" width="288" height="288" xmlns="http://www.w3.org/2000/svg" version="1.1" xmlns:xlink="http://www.w3.org/1999/xlink" xmlns:svgjs="http://svgjs.com/svgjs"><defs id="SvgjsDefs1142"></defs><g id="SvgjsG1143"><svg xmlns="http://www.w3.org/2000/svg" viewBox="0 0 28 28" width="288" height="288"><path fill="#ffffff" fill-rule="evenodd" d="M28 13.987C28 21.728 21.722 28 14 28 6.251 28 0 21.728 0 13.987 0 6.272 6.251 0 14 0c7.722 0 14 6.272 14 13.987z" clip-rule="evenodd" class="color0c0c0c svgShape"></path><path fill="#000000" d="M14 21c-3.859 0-7-3.14-7-7s3.141-7 7-7 7 3.14 7 7-3.141 7-7 7zm0-13c-3.309 0-6 2.691-6 6s2.691 6 6 6 6-2.691 6-6-2.691-6-6-6z" class="colorfff svgShape"></path><circle cx="14" cy="14" r="2.167" fill="#000000" class="colorfff svgShape"></circle></svg></g></svg>